<svg xmlns="http://www.w3.org/2000/svg" viewBox="0 0 461 461">
  <path d="M230 121L66 256.2l-.2.8v138c0 5 1.7 9.3 5.3 13 3.7 3.5 8 5.3 13 5.3h109.6V303.7h73v109.6h109.7c5 0 9.3-1.8 13-5.4 3.5-3.7 5.3-8 5.3-13V258c0-.8 0-1.4-.3-1.7L230 121z"/>
  <path d="M457 225.4l-62.4-52V57c0-2.7-1-5-2.6-6.6-1.7-1.7-4-2.5-6.5-2.5h-55c-2.5 0-4.7.7-6.4 2.4-1.6 1.7-2.5 4-2.5 6.6v55.7l-69.7-58.3c-6-5-13.3-7.4-21.6-7.4-8.4 0-15.7 2.5-21.7 7.4L3.2 225.4c-2 1.6-3 3.6-3.2 6.2-.2 2.5.5 4.8 2 6.7l17.7 21c1.6 1.8 3.6 3 6 3.3 2.3 0 4.6-.5 7-2L230 95.8l197.7 164.8c1.5 1.3 3.5 2 6 2h1c2.3-.4 4.3-1.5 6-3.2l17.6-21c1.5-2 2.2-4.3 2-6.8-.2-2.6-1.3-4.6-3.2-6.2z"/>
</svg>
